<svg width="234" height="128" viewBox="0 0 234 128" fill="none" xmlns="http://www.w3.org/2000/svg">
<ellipse cx="30.8219" cy="31.1475" rx="30.8219" ry="31.1475" transform="matrix(0.984472 -0.175541 0.171774 0.985136 18.5768 29.8992)" fill="#FDD020"/>
<path d="M88.9311 50.2756C88.7314 49.1305 89.4972 48.0369 90.6415 47.8329L106.18 45.0622C107.324 44.8582 108.414 45.621 108.613 46.7661V46.7661C108.813 47.9111 108.047 49.0047 106.903 49.2088L91.3645 51.9794C90.2202 52.1835 89.1307 51.4206 88.9311 50.2756V50.2756Z" fill="#FDD020"/>
<path d="M74.0432 24.4143C73.1624 23.667 73.0463 22.3405 73.784 21.4515L83.9594 9.18855C84.697 8.29959 86.009 8.18482 86.8898 8.93219V8.93219C87.7705 9.67956 87.8866 11.0061 87.149 11.895L76.9735 24.158C76.2359 25.0469 74.9239 25.1617 74.0432 24.4143V24.4143Z" fill="#FDD020"/>
<path d="M24.8417 36.7705C25.4166 35.7635 25.0709 34.4733 24.0696 33.8887L10.3875 25.9005C9.38618 25.3159 8.10841 25.6583 7.53352 26.6652V26.6652C6.95864 27.6721 7.30433 28.9623 8.30564 29.5469L21.9877 37.5351C22.9891 38.1197 24.2668 37.7774 24.8417 36.7705V36.7705Z" fill="#FDD020"/>
<path d="M29.4307 80.5111C30.3114 81.2585 30.4275 82.585 29.6899 83.474L19.5144 95.7369C18.7768 96.6259 17.4648 96.7407 16.5841 95.9933V95.9933C15.7033 95.2459 15.5872 93.9194 16.3249 93.0305L26.5003 80.7675C27.2379 79.8785 28.5499 79.7638 29.4307 80.5111V80.5111Z" fill="#FDD020"/>
<path d="M82.5539 77.157C83.293 76.2663 84.6075 76.1513 85.49 76.9002L97.6042 87.1795C98.4867 87.9283 98.6029 89.2574 97.8639 90.1481V90.1481C97.1248 91.0388 95.8103 91.1538 94.9278 90.405L82.8136 80.1256C81.9311 79.3768 81.8148 78.0477 82.5539 77.157V77.157Z" fill="#FDD020"/>
<path d="M45.1367 0.365575C46.269 0.163674 47.3471 0.918535 47.5446 2.05161L50.2997 17.8519C50.4972 18.9849 49.7395 20.0672 48.6072 20.2691V20.2691C47.4749 20.471 46.3968 19.7161 46.1992 18.583L43.4442 2.78275C43.2466 1.64968 44.0044 0.567477 45.1367 0.365575V0.365575Z" fill="#FDD020"/>
<path d="M60.7539 89.9312C61.8862 89.7293 62.9643 90.4842 63.1619 91.6173L65.9169 107.418C66.1145 108.551 65.3567 109.633 64.2244 109.835V109.835C63.0921 110.037 62.014 109.282 61.8165 108.149L59.0614 92.3484C58.8639 91.2153 59.6216 90.1331 60.7539 89.9312V89.9312Z" fill="#FDD020"/>
<path d="M0.36151 66.0684C0.161853 64.9234 0.927613 63.8297 2.07188 63.6257L17.6103 60.8551C18.7545 60.651 19.844 61.4139 20.0436 62.5589V62.5589C20.2433 63.7039 19.4775 64.7976 18.3333 65.0016L2.7949 67.7723C1.65063 67.9763 0.561166 67.2135 0.36151 66.0684V66.0684Z" fill="#FDD020"/>
<path d="M32.4769 97.6842C32.4769 80.9413 46.0497 67.3684 62.7927 67.3684H203.684C220.427 67.3684 234 80.9413 234 97.6842V97.6842C234 114.427 220.427 128 203.684 128H62.7927C46.0497 128 32.4769 114.427 32.4769 97.6842V97.6842Z" fill="white"/>
<ellipse cx="203.605" cy="93.8947" rx="30.395" ry="30.7368" fill="white"/>
<ellipse cx="100.762" cy="57.2632" rx="37.4733" ry="37.8947" fill="white"/>
<ellipse cx="161.968" cy="63.1579" rx="28.7295" ry="28.6316" fill="white"/>
</svg>
