<svg width="46" height="40" viewBox="0 0 46 40" fill="none" xmlns="http://www.w3.org/2000/svg">
<path d="M11.0545 23.4188C11.0545 21.7352 11.38 20.0681 12.0123 18.5126C12.6447 16.9572 13.5716 15.5438 14.7401 14.3533C15.9086 13.1628 17.2958 12.2185 18.8225 11.5742C20.3492 10.9299 21.9855 10.5983 23.638 10.5983C25.2905 10.5983 26.9268 10.9299 28.4535 11.5742C29.9802 12.2185 31.3674 13.1628 32.5359 14.3533C33.7044 15.5438 34.6313 16.9572 35.2637 18.5126C35.8961 20.0681 36.2216 21.7352 36.2216 23.4188L23.638 23.4188H11.0545Z" fill="#FDD020"/>
<path d="M37.6816 20.3411C37.6024 19.8903 37.9036 19.4602 38.3542 19.3805L44.7334 18.2516C45.1841 18.1718 45.6136 18.4726 45.6928 18.9234V18.9234C45.772 19.3742 45.4709 19.8042 45.0202 19.884L38.641 21.0129C38.1904 21.0927 37.7608 20.7919 37.6816 20.3411V20.3411Z" fill="#FDD020"/>
<path d="M4.7627 23.9316C4.7627 23.554 5.06883 23.2478 5.44646 23.2478H42.1791C42.5567 23.2478 42.8629 23.554 42.8629 23.9316V23.9316C42.8629 24.3092 42.5567 24.6154 42.1791 24.6154H5.44646C5.06883 24.6154 4.7627 24.3092 4.7627 23.9316V23.9316Z" fill="white"/>
<path d="M33.6204 12.2449C33.3195 11.8943 33.3652 11.3724 33.7223 11.0793L38.6607 7.02641C39.0178 6.73332 39.5512 6.77997 39.852 7.13061V7.13061C40.1528 7.48126 40.1072 8.00311 39.75 8.29621L34.8117 12.3491C34.4546 12.6422 33.9212 12.5956 33.6204 12.2449V12.2449Z" fill="#FDD020"/>
<path d="M14.3354 12.2449C14.6363 11.8943 14.5906 11.3724 14.2335 11.0793L9.29513 7.02641C8.93801 6.73332 8.40464 6.77997 8.10382 7.13061V7.13061C7.803 7.48126 7.84864 8.00311 8.20577 8.29621L13.1441 12.3491C13.5013 12.6422 14.0346 12.5956 14.3354 12.2449V12.2449Z" fill="#FDD020"/>
<path d="M23.8075 0C24.2755 0 24.6549 0.379383 24.6549 0.847376V7.10911C24.6549 7.5771 24.2755 7.95649 23.8075 7.95649V7.95649C23.3395 7.95649 22.9602 7.5771 22.9602 7.10911V0.847376C22.9602 0.379384 23.3395 0 23.8075 0V0Z" fill="#FDD020"/>
<path d="M23.6381 32.1367C24.0242 32.1367 24.3372 32.4497 24.3372 32.8358V39.3009C24.3372 39.687 24.0242 40 23.6381 40V40C23.252 40 22.939 39.687 22.939 39.3009V32.8358C22.939 32.4497 23.252 32.1367 23.6381 32.1367V32.1367Z" fill="white"/>
<path d="M22.8091 28.5792C23.2056 27.9916 24.0707 27.9916 24.4671 28.5792L26.2188 31.1758C26.6668 31.8399 26.191 32.735 25.3898 32.735H21.8865C21.0853 32.735 20.6094 31.8399 21.0575 31.1758L22.8091 28.5792Z" fill="white"/>
<path d="M0.979527 18.9234C1.05872 18.4726 1.48827 18.1718 1.93896 18.2516L8.31812 19.3805C8.7688 19.4602 9.06995 19.8903 8.99075 20.3411V20.3411C8.91156 20.7919 8.48201 21.0926 8.03132 21.0129L1.65216 19.884C1.20148 19.8042 0.900331 19.3741 0.979527 18.9234V18.9234Z" fill="#FDD020"/>
</svg>
