<svg width="45" height="40" viewBox="0 0 45 40" fill="none" xmlns="http://www.w3.org/2000/svg">
<path d="M10.1395 23.2203C10.1395 21.551 10.4624 19.898 11.09 18.3557C11.7175 16.8134 12.6372 15.4121 13.7967 14.2317C14.9562 13.0513 16.3327 12.1149 17.8477 11.4761C19.3626 10.8373 20.9863 10.5085 22.6261 10.5085C24.2658 10.5085 25.8895 10.8373 27.4045 11.4761C28.9194 12.1149 30.2959 13.0513 31.4554 14.2317C32.6149 15.4121 33.5347 16.8134 34.1622 18.3557C34.7897 19.898 35.1127 21.551 35.1127 23.2203L22.6261 23.2203H10.1395Z" fill="#FDD020"/>
<path d="M36.9083 20.1692C36.8298 19.7223 37.1284 19.2958 37.5752 19.2167L43.9065 18.0963C44.3534 18.0173 44.7793 18.3155 44.8578 18.7624V18.7624C44.9363 19.2094 44.6377 19.6358 44.1909 19.7149L37.8596 20.8353C37.4127 20.9144 36.9868 20.6162 36.9083 20.1692V20.1692Z" fill="#FDD020"/>
<path d="M3.89624 23.7288C3.89624 23.3544 4.19978 23.0508 4.57421 23.0508H41.0249C41.3994 23.0508 41.7029 23.3544 41.7029 23.7288V23.7288C41.7029 24.1032 41.3994 24.4068 41.0249 24.4068H4.57421C4.19978 24.4068 3.89624 24.1032 3.89624 23.7288V23.7288Z" fill="white"/>
<path d="M32.5316 12.1412C32.2331 11.7935 32.2783 11.2761 32.6327 10.9855L37.5331 6.9668C37.8875 6.67622 38.4167 6.72251 38.7152 7.07019V7.07019C39.0137 7.41786 38.9684 7.93526 38.6141 8.22583L33.7136 12.2446C33.3593 12.5351 32.8301 12.4888 32.5316 12.1412V12.1412Z" fill="#FDD020"/>
<path d="M13.3952 12.1412C13.6937 11.7935 13.6484 11.2761 13.2941 10.9855L8.39361 6.9668C8.03929 6.67622 7.51006 6.72251 7.21156 7.07019V7.07019C6.91306 7.41786 6.95831 7.93526 7.31264 8.22583L12.2131 12.2446C12.5675 12.5351 13.0967 12.4888 13.3952 12.1412V12.1412Z" fill="#FDD020"/>
<path d="M22.7944 0C23.2588 0 23.6353 0.376461 23.6353 0.840849V7.04821C23.6353 7.5126 23.2588 7.88906 22.7944 7.88906V7.88906C22.33 7.88906 21.9536 7.5126 21.9536 7.04821V0.84085C21.9536 0.376462 22.33 0 22.7944 0V0Z" fill="#FDD020"/>
<path d="M22.973 27.4576C23.3562 27.4576 23.6667 27.7682 23.6667 28.1513V34.5606C23.6667 34.9437 23.3562 35.2543 22.973 35.2543V35.2543C22.5899 35.2543 22.2793 34.9437 22.2793 34.5606V28.1513C22.2793 27.7682 22.5899 27.4576 22.973 27.4576V27.4576Z" fill="white"/>
<path d="M23.8017 38.7724C23.4052 39.3597 22.5406 39.3597 22.1441 38.7724L20.4213 36.2206C19.9729 35.5564 20.4487 34.661 21.2501 34.661H24.6958C25.4971 34.661 25.973 35.5564 25.5246 36.2206L23.8017 38.7724Z" fill="white"/>
<path d="M0.142237 18.7625C0.220764 18.3155 0.646678 18.0173 1.09354 18.0964L7.42482 19.2168C7.87168 19.2959 8.17028 19.7223 8.09175 20.1692V20.1692C8.01322 20.6162 7.58731 20.9144 7.14044 20.8354L0.809165 19.715C0.362303 19.6359 0.0637089 19.2094 0.142237 18.7625V18.7625Z" fill="#FDD020"/>
</svg>
